<?xml version="1.0" encoding="utf-8"?>
<!-- Generator: Adobe Illustrator 26.5.0, SVG Export Plug-In . SVG Version: 6.00 Build 0)  -->
<svg version="1.1" id="Layer_1" xmlns="http://www.w3.org/2000/svg" xmlns:xlink="http://www.w3.org/1999/xlink" x="0px" y="0px"
	 viewBox="0 0 256 235" style="enable-background:new 0 0 256 235;" xml:space="preserve">
<style type="text/css">
	.st0{fill-rule:evenodd;clip-rule:evenodd;fill:#EA2D4A;}
	.st1{fill-rule:evenodd;clip-rule:evenodd;fill:#3D2A24;}
</style>
<path id="flyer" class="st0" d="M253.7,75.8l-54.1-20.4L183.2,2.5c0-0.1-0.1-0.3-0.2-0.4V2c-0.1-0.1-0.1-0.3-0.2-0.4l-0.3-0.3
	l-0.1-0.1l-0.3-0.3H182c0,0-0.1,0-0.1-0.1c-0.1-0.1-0.2-0.2-0.3-0.2c-0.1-0.1-0.3-0.1-0.4-0.2h-0.1c-0.1-0.1-0.3-0.1-0.4-0.1h-0.1
	c-0.1,0-0.3-0.1-0.4-0.1h-1.1c-0.3,0.1-0.6,0.1-0.9,0.3h-0.1c-0.1,0.1-0.3,0.1-0.4,0.2h-0.1l-0.1,0.1l-52.8,41.1l-22-2.7h-1.1
	c-0.1,0-0.2,0-0.3,0.1h-0.2c-0.1,0-0.2,0.1-0.3,0.1c-0.1,0-0.1,0-0.2,0.1c-0.1,0-0.2,0.1-0.3,0.1l-0.1,0.1c-0.1,0.1-0.2,0.1-0.3,0.2
	c0,0-0.1,0-0.1,0.1l-0.3,0.3l-0.1,0.1c-0.1,0.1-0.1,0.2-0.2,0.2L0.6,180l-0.1,0.1c0,0,0,0.1-0.1,0.1c0,0,0,0.1-0.1,0.1v0.2
	c0,0,0,0.1-0.1,0.1v2.6c0,0.1,0,0.1,0.1,0.2v0.1c0,0.1,0.1,0.1,0.1,0.2v0.1c0,0,0,0.1,0.1,0.1v0.1c0,0,0,0.1,0.1,0.1v0.1l0.1,0.1
	c0,0,0,0.1,0.1,0.1v0.1l0.1,0.1l0.2,0.2l0.3,0.3h0.1c0.1,0.1,0.2,0.1,0.3,0.2c0,0,0.1,0,0.1,0.1c0.1,0,0.2,0.1,0.3,0.1h0.1
	c0.1,0,0.2,0.1,0.4,0.1c0.1,0,0.2,0.1,0.4,0.1h1l210-32.1h0.1c0.1,0,0.3-0.1,0.4-0.1c0.1,0,0.1,0,0.2-0.1c0.1,0,0.2-0.1,0.3-0.1
	s0.1-0.1,0.2-0.1c0.1-0.1,0.2-0.1,0.3-0.2c0.1,0,0.1-0.1,0.2-0.1c0,0,0.1,0,0.1-0.1l0.2-0.2l0.1-0.1l0.3-0.3l0.1-0.1
	c0.1-0.1,0.2-0.3,0.3-0.4c0,0,0-0.1,0.1-0.1c0.1-0.1,0.1-0.2,0.1-0.3s0-0.1,0.1-0.2c0-0.1,0.1-0.2,0.1-0.3v-1.3l-8.5-40.1l45.8-27
	c1.2-0.7,1.8-2,1.7-3.3C255.9,77.4,255,76.2,253.7,75.8L253.7,75.8z"/>
<g id="integrations">
	<path class="st1" d="M187.2,32.7c-0.2-0.2-0.4-0.4-0.6-0.5C149.5,4.8,98,6.6,65.8,38.8C58,46.7,51.9,55.6,47.7,65.2
		c-0.5,1.1-0.6,2.4-0.1,3.6c0.4,1.2,1.3,2.1,2.5,2.6c1.1,0.5,2.4,0.5,3.6,0.1c1.2-0.5,2.1-1.3,2.6-2.5c3.8-8.6,9.2-16.5,16.2-23.5
		c28.9-28.9,75.1-30.6,108.7-5.8c1.9,1.5,4.7,1.2,6.3-0.6C189,37.2,188.9,34.4,187.2,32.7z"/>
	<path class="st1" d="M100.8,67.7c-1.7-1.4-4.4-1.5-6-0.1c-1.7,1.4-2.1,4.1-1,6l11.6,19.1L28.1,69.3c-2.3-0.8-5.2,0.7-5.9,3
		c-0.7,2.4,0.8,5.2,3.2,5.8l78.5,23.9l-19.3,11.1c-2.3,1.1-3.3,4.3-2.1,6.5c1.3,2.2,4.5,3,6.6,1.6l28.1-16.2
		c2.7-1.4,3.7-4.4,2.3-6.7l-17.9-29.5C101.4,68.4,101.1,68.1,100.8,67.7z"/>
	<path class="st1" d="M148.7,191.7c-1-1-2.3-1.4-3.7-1.3c-24.4,2.1-50.2-6.6-69.6-25.9c-19.3-19.3-28-45.1-25.9-69.5
		c0.1-1.2-0.3-2.5-1-3.4c-0.8-1-1.9-1.6-3.2-1.7c-1.2-0.1-2.5,0.3-3.4,1.1c-0.9,0.8-1.5,2-1.6,3.2c-2.3,27.1,7.3,55.6,28.6,76.9
		s49.8,31,76.9,28.6c1.8-0.1,3.4-1.3,4-3C150.5,194.9,150,192.9,148.7,191.7L148.7,191.7z"/>
	<path class="st1" d="M170.4,137.4c-0.2-0.2-0.4-0.3-0.6-0.4l-29.5-17.9c-1.1-0.7-2.4-0.9-3.6-0.5c-1.2,0.3-2.3,1.1-2.9,2.2
		l-16.5,28.7c-0.6,1.1-0.8,2.4-0.4,3.5c0.3,1.2,1.1,2.2,2.2,2.8s2.4,0.8,3.5,0.4c1.2-0.3,2.2-1.1,2.8-2.2l11.1-19.3l23.8,78.3
		c0.3,1.2,1.1,2.2,2.2,2.8c1.1,0.6,2.4,0.7,3.6,0.4c1.2-0.4,2.2-1.2,2.8-2.3s0.7-2.4,0.3-3.6l-23.4-77l19.1,11.5
		c2,1.2,4.5,0.7,6-1.1s1.4-4.4-0.2-6.1C170.7,137.6,170.5,137.5,170.4,137.4L170.4,137.4z"/>
	<path class="st1" d="M207.6,53.3c-1.8-1.7-4.5-1.7-6.3-0.1c-1.8,1.6-2.1,4.3-0.6,6.3c24.4,33.6,22.5,79.4-6.2,108.1
		c-7.2,7.2-15.4,12.6-24.2,16.5c-1.2,0.5-2.1,1.4-2.5,2.5c-0.5,1.2-0.4,2.4,0,3.6c0.5,1.1,1.4,2,2.6,2.5c1.2,0.4,2.5,0.4,3.6-0.1
		c9.9-4.3,19-10.4,27-18.4c32.1-32.1,34.1-83.1,7.1-120.2C208,53.7,207.8,53.5,207.6,53.3L207.6,53.3z"/>
	<path class="st1" d="M213.5,26.4c-1.7-1.7-4.9-1.6-6.6,0.1l-55,54.9l-0.7-22.9c-0.1-2.4-2.4-4.6-4.8-4.5c-2.4,0.1-4.6,2.4-4.5,4.8
		l1.1,33.6c0,2.9,2.3,4.5,4.6,4.5l33.8,0.7c1.9,0.1,3.7-1.1,4.5-2.8c0.7-1.7,0.3-3.9-1.1-5.2c-0.9-0.8-2-1.3-3.2-1.3l-22.8-0.5
		l54.8-54.7C215.3,31.4,215.3,28.1,213.5,26.4L213.5,26.4z"/>
</g>
</svg>
